<?xml version="1.0" encoding="iso-8859-1"?>
<!-- Generator: Adobe Illustrator 19.0.0, SVG Export Plug-In . SVG Version: 6.00 Build 0)  -->
<svg xmlns="http://www.w3.org/2000/svg" xmlns:xlink="http://www.w3.org/1999/xlink" version="1.1" id="Capa_1" x="0px" y="0px" viewBox="0 0 469.333 469.333" style="enable-background:new 0 0 469.333 469.333;" xml:space="preserve" width="512px" height="512px">
<g>
	<g>
		<path d="M458.667,0h-448C4.779,0,0,4.779,0,10.667v106.667C0,123.221,4.779,128,10.667,128s10.667-4.779,10.667-10.667    c0-17.643,14.357-32,32-32H192V416c0,17.643-14.357,32-32,32c-5.888,0-10.667,4.779-10.667,10.667    c0,5.888,4.779,10.667,10.667,10.667h149.333c0.171,0,0.341,0,0.427,0c5.888,0,10.667-4.779,10.667-10.667    c0-5.888-4.779-10.667-10.667-10.667h-0.213c-0.043,0-0.128,0-0.213,0c-17.643,0-32-14.357-32-32V85.333H416    c17.643,0,32,14.357,32,32c0,5.888,4.779,10.667,10.667,10.667c5.888,0,10.667-4.779,10.667-10.667V10.667    C469.333,4.779,464.555,0,458.667,0z" fill="#ef5d8f"/>
	</g>
</g>
<g>
</g>
<g>
</g>
<g>
</g>
<g>
</g>
<g>
</g>
<g>
</g>
<g>
</g>
<g>
</g>
<g>
</g>
<g>
</g>
<g>
</g>
<g>
</g>
<g>
</g>
<g>
</g>
<g>
</g>
</svg>
